<svg width="255" height="104" viewBox="0 0 255 104" fill="none" xmlns="http://www.w3.org/2000/svg">
<g clip-path="url(#clip0_1_207)">
<path d="M0.458252 14.4218V42.318L17.1395 29.4935L0.458252 14.4218Z" fill="#131118"/>
<path d="M0.458252 89.4136L17.1395 74.3453L0.458252 61.5305V89.4136Z" fill="#131118"/>
<path d="M31.7383 48.096L73.709 14.4211H49.2459L0.458252 51.9257L31.7383 48.096Z" fill="#131118"/>
<path d="M0.458252 51.9257L49.2459 89.4157H73.709L31.7383 55.7345L0.458252 51.9257Z" fill="#131118"/>
<path d="M86.8134 17.6561H95.0618V85.5846H86.8134V17.6561ZM121.748 17.6561H131.937L102.534 49.4854L133.393 85.5846H123.204L92.5388 49.6795L121.748 17.6561Z" fill="#131118"/>
<path d="M148.961 40.9459V85.5846H141.198V40.9459H148.961ZM162.45 49.4854C161.415 48.7091 160.477 48.1592 159.636 47.8358C158.795 47.4476 157.727 47.2535 156.433 47.2535C154.492 47.2535 152.972 47.7387 151.872 48.7091C150.773 49.6795 149.996 51.0058 149.543 52.6878C149.155 54.3698 148.961 56.2783 148.961 58.4132H145.468C145.468 54.855 146.082 51.7174 147.311 49.0002C148.605 46.2184 150.255 44.0188 152.26 42.4015C154.266 40.7841 156.304 39.9755 158.374 39.9755C159.991 39.9755 161.479 40.2019 162.838 40.6547C164.261 41.0429 165.555 41.8516 166.72 43.0808L162.45 49.4854Z" fill="#131118"/>
<path d="M174.461 22.5081C174.461 21.0202 174.978 19.7587 176.013 18.7236C177.113 17.6884 178.375 17.1709 179.798 17.1709C181.286 17.1709 182.548 17.6884 183.583 18.7236C184.618 19.7587 185.135 21.0202 185.135 22.5081C185.135 23.9314 184.618 25.1929 183.583 26.2927C182.548 27.3278 181.286 27.8454 179.798 27.8454C178.375 27.8454 177.113 27.3278 176.013 26.2927C174.978 25.1929 174.461 23.9314 174.461 22.5081ZM175.916 40.9459H183.68V85.5846H175.916V40.9459Z" fill="#131118"/>
<path d="M201.512 71.9019C202.418 73.2604 203.453 74.5219 204.618 75.6864C205.782 76.8509 207.108 77.789 208.596 78.5006C210.149 79.1476 211.831 79.471 213.642 79.471C215.842 79.471 217.556 78.9858 218.786 78.0154C220.08 76.9803 220.726 75.5894 220.726 73.8427C220.726 72.29 220.209 70.9961 219.174 69.961C218.203 68.8612 216.942 67.9555 215.389 67.2439C213.837 66.4676 212.187 65.7559 210.44 65.109C208.499 64.3327 206.526 63.427 204.521 62.3919C202.58 61.2921 200.93 59.9011 199.572 58.2191C198.278 56.4724 197.631 54.3051 197.631 51.7174C197.631 49.0649 198.31 46.8653 199.669 45.1186C201.092 43.3719 202.903 42.078 205.103 41.237C207.367 40.396 209.696 39.9755 212.09 39.9755C214.484 39.9755 216.715 40.3636 218.786 41.1399C220.921 41.9163 222.797 42.9514 224.414 44.2452C226.031 45.5391 227.293 47.0271 228.199 48.7091L221.988 52.6878C220.759 51.0058 219.206 49.6148 217.33 48.515C215.519 47.4152 213.448 46.8653 211.119 46.8653C209.502 46.8653 208.111 47.2212 206.947 47.9328C205.782 48.6444 205.2 49.7442 205.2 51.2322C205.2 52.3967 205.653 53.4318 206.559 54.3375C207.464 55.2432 208.629 56.0519 210.052 56.7635C211.475 57.4751 212.963 58.1544 214.516 58.8014C217.104 59.8365 219.465 60.9686 221.6 62.1978C223.735 63.3623 225.417 64.7855 226.646 66.4676C227.94 68.1496 228.587 70.3168 228.587 72.9693C228.587 76.8509 227.163 80.0856 224.317 82.6734C221.535 85.2611 217.848 86.555 213.254 86.555C210.278 86.555 207.594 86.0374 205.2 85.0023C202.806 83.9025 200.768 82.5116 199.086 80.8296C197.469 79.1475 196.24 77.4332 195.399 75.6864L201.512 71.9019Z" fill="#131118"/>
<path d="M232.014 40.9459H254.334V48.2239H232.014V40.9459ZM239.292 25.4194H247.056V85.5846H239.292V25.4194Z" fill="#131118"/>
</g>
<defs>
<clipPath id="clip0_1_207">
<rect width="253.875" height="103.153" fill="white" transform="translate(0.458252 0.400391)"/>
</clipPath>
</defs>
</svg>
