<svg data-v-0dd9719b="" version="1.0" xmlns="http://www.w3.org/2000/svg" xmlns:xlink="http://www.w3.org/1999/xlink" width="100%" height="100%" viewBox="0 0 340.000000 250.000000" preserveAspectRatio="xMidYMid meet" color-interpolation-filters="sRGB" style="margin: auto;"> <rect data-v-0dd9719b="" x="0" y="0" width="100%" height="100%" fill="#ffffff" fill-opacity="1" class="background"></rect> 
<!----> 
<g data-v-0dd9719b="" fill="#ec7210" class="icon-text-wrapper icon-svg-group iconsvg" transform="translate(17.29888916015625,53.65208435058594)">
<g class="iconsvg-imagesvg" transform="translate(0,0)">
<g>
<rect fill="#ec7210" fill-opacity="0" stroke-width="2" x="0" y="0" width="142.80000000000007" height="142.695832042609" class="image-rect"></rect> 
<svg x="0" y="0" width="142.80000000000007" height="142.695832042609" filtersec="colorsb4489780934" class="image-svg-svg primary" style="overflow: visible;">
<svg xmlns="http://www.w3.org/2000/svg" viewBox="-0.036718934774398804 -0.003086090087890625 153.39450073242188 153.28317260742188"><path d="M33.36 13.78c23.27-18.12 62.54-18.65 86.89.05a75.12 75.12 0 0 0-19.71 15.52C89.31 42.1 83.12 56.93 82.58 74c-.78 25.25-.18 50.5-.26 75.76 0 2.75-.87 3.51-3.48 3.52-7.88 0-7.88.11-7.88-7.84 0-22-.12-44.09 0-66.13.21-28.31-11.9-49.63-35.89-64.39-.58-.35-1.13-.75-1.71-1.14z" fill="#ec7210"></path><path d="M92.86 111.43c0-11.5-.19-23 0-34.5C93.4 52.1 105 34 126.74 22.23c2-1.06 3.32-1.06 5 .75a82.56 82.56 0 0 1 15.93 24.32c.78 1.86.47 2.32-1.56 2.72-21.68 4.22-35.37 17-40.73 38.48a37.32 37.32 0 0 0-1 9.26c0 15.89 0 31.77.06 47.66 0 2-.4 3-2.47 3.49a52.71 52.71 0 0 0-6.7 2c-1.86.67-2.41.12-2.4-1.79.07-8 0-16 0-24zM60.56 110.21c0 12.78-.06 25.55 0 38.32 0 2.52-.6 2.94-3 2.3-8.47-2.28-8.49-2.2-8.49-10.78V98.81A49 49 0 0 0 8.94 50.29a15.46 15.46 0 0 0-2.3-.42c-1.46 0-1.6-.77-1.13-1.9A78.17 78.17 0 0 1 23 21.89c1.08-1.06 1.93-.47 2.87 0C41.96 29.77 52.8 42.18 58.1 59.3a59 59 0 0 1 2.53 17.87c-.12 11.01-.07 22.03-.07 33.04z" fill="#ec7210"></path><path d="M38.68 143a68.58 68.58 0 0 1-16.57-12.64A75.64 75.64 0 0 1 1 89.11a78 78 0 0 1 .29-27c.34-1.84 1.27-2.12 2.85-1.92 15.55 2 26.13 10.37 32.08 24.73a31.44 31.44 0 0 1 2.42 12c.05 15.13.04 30.34.04 46.08zM114.85 143c0-16.36-.53-32.17.14-47.92.78-18.06 16.74-33.88 33.9-35 2.29-.15 3 .5 3.35 2.62 3.93 25.47-2.44 47.83-20.11 66.79A71.79 71.79 0 0 1 114.85 143z" fill="#f0c244"></path></svg></svg> <!----></g></g> <g transform="translate(145.39779663085938,16.695831298828125)"><g data-gra="path-name" fill-rule="" class="tp-name iconsvg-namesvg" transform="translate(0,0)"><g transform="scale(3.040000000000001)"><g><path d="M12.7-15.93C12.55-16.18 11.38-16.13 11.13-16.13 10-16.13 8.85-15.98 7.75-16.15 7.3-16.23 6.98-16.4 6.75-16.78 6.43-17.3 5.95-17.57 5.38-17.68 5.03-17.75 4.83-17.63 4.7-17.32 4.65-17.18 4.6-17.03 4.58-16.88 4.48-16.25 4.48-16.25 3.88-16.23 2.6-16.18 1.3-16.1 0.03-16.1-0.03-14.95 2.48-15.33 3.08-15.25 3.83-15.18 3.98-15.13 3.93-14.35 3.83-13.15 3.68-11.98 3.55-10.78 3.43-9.18 3.3-7.58 3.25-5.95 3.2-5.13 3.15-4.3 3.18-3.48 3.18-3.1 3.1-2.2 3.5-2.02 3.5-1.83 3.6-1.7 3.75-1.63L3.78-1.65C3.98-1.35 3.88-1 3.93-0.7 3.98-0.2 4.08 0 4.42 0.03 4.8 0.05 5.25 0.25 5.48-0.3 5.5-0.28 5.5-0.25 5.53-0.25 5.9-0.23 6.03-0.53 6.23-0.75 6.25-0.83 6.28-0.85 6.35-0.85 6.68-0.88 7.13-1.8 7.25-2.05 7.55-2.63 7.78-3.25 7.8-3.93 7.83-4.7 7.58-5.48 7.48-6.25 7.38-7.1 7.48-7.98 7.6-8.83 7.73-9.85 7.9-10.88 8.08-11.88 8.22-12.73 8.6-13.7 8.5-14.55 8.5-14.65 8.6-14.78 8.7-14.78 9.22-14.8 9.68-15.05 10.2-15.08 10.88-15.15 11.93-15.15 12.5-15.58 12.7-15.73 12.75-15.85 12.7-15.93ZM20.95-8.75L20.93-8.72C20.88-8.68 20.73-8.65 20.65-8.63 20.52-8.58 20.4-8.53 20.27-8.47 20.02-8.38 19.77-8.28 19.55-8.15 19.27-8 19.02-7.83 18.8-7.63 18.68-7.53 18.57-7.4 18.45-7.3 18.35-7.2 18.25-7.18 18.15-7.08 18-6.98 17.73-7.93 17.7-8 17.55-8.45 17.45-8.93 17.27-9.35 17.13-9.78 16.9-10.18 16.57-10.45 16.13-10.83 15.65-10.75 15.13-10.88 15.1-10.85 15.05-10.85 15-10.88 14.8-11.03 14.35-10.65 14.28-10.5 14.07-10.2 14.1-9.75 14.07-9.4 13.97-8.47 13.9-7.55 13.85-6.63 13.8-5.58 13.78-4.55 13.78-3.53 13.78-3 13.78-2.5 13.78-1.98 13.78-1.73 13.68-0.88 13.85-0.7 14.32-0.23 15.03 0 15.68 0 16 0 16.25 0 16.4-0.28 16.57-0.53 16.43-0.85 16.75-1.07 17.43-1.58 17.73-2.38 18.02-3.15 18.38-4.05 18.82-4.88 19.2-5.78 19.52-6.5 20.15-7.03 20.75-7.53 21.2-7.88 21.55-8.35 21.5-8.72L21.52-8.7C21.35-8.88 21.15-8.8 20.95-8.75ZM23.95-10.75C23.98-10.63 24.03-10.5 24.1-10.4 24.23-10.2 24.48-10.1 24.68-10.03 25.15-9.83 25.68-9.7 26.18-9.8 27.65-10.13 27-12.03 26.58-12.95 26.43-13.25 26.25-13.55 25.98-13.73 25.5-14 24.73-13.95 24.38-13.55 24.2-13.38 24.18-13.15 24.08-12.93 23.93-12.53 23.95-12.13 23.98-11.68 23.98-11.4 23.9-11.05 23.95-10.75ZM29.2-4.17C29.08-4.3 28.85-4.25 28.68-4.1 28.55-4 28.45-3.88 28.33-3.88 28.08-3.73 27.65-3.55 27.53-3.38 27.15-3.18 26.73-2.75 26.58-2.75 26.08-2.33 25.48-2.02 25-1.6 24.98-1.6 24.95-1.6 24.93-1.6 24.78-1.55 25.25-2.68 25.28-2.7 25.53-3.18 25.75-3.68 25.95-4.17 26.55-5.83 27.18-7.63 25.48-8.88 25-9.22 24.38-9.43 23.78-9.45 23.03-9.45 23.1-8.88 22.98-8.28 22.8-7.5 22.65-6.7 22.53-5.93 22.35-4.8 22.18-3.68 22.05-2.58 22-1.98 21.7-1.18 22.15-0.7 22.65-0.18 23.55-0.13 24.2-0.28 24.98-0.45 25.65-0.88 26.28-1.35 27-1.88 27.7-2.45 28.35-3.05 28.58-3.25 29.18-3.63 29.25-3.93 29.28-4.05 29.25-4.13 29.2-4.17ZM35.48-6.78C35.35-6.83 35.25-6.85 35.13-6.85 34.68-6.93 34.23-6.73 33.75-6.78 32.93-6.9 33.38-7.58 33.33-8.2 33.33-8.55 33.2-8.9 32.93-9.1 32.73-9.28 32.45-9.35 32.23-9.45 31.8-9.65 31.43-9.93 31-10.15 30.55-10.38 29.93-10.48 29.48-10.2 28.83-9.83 28.93-9.15 28.95-8.53 29.03-6.78 29.1-5.03 28.95-3.3 28.83-1.8 28.55-0.33 28.38 1.18 28.3 1.93 28.23 2.68 28.23 3.45 28.2 3.88 28.1 4.33 28.18 4.75 28.23 5.1 29.3 5.55 29.3 5.58 29.98 5.73 30.83 5.68 31.35 5.2 31.38 5.15 31.4 5.13 31.45 5.1 31.68 4.9 31.85 4.28 31.95 4 32.18 3.38 32.38 2.75 32.55 2.1 32.78 1.35 32.95 0.58 33.13-0.2 33.2-0.6 33.25-1 33.35-1.4 33.43-1.68 33.63-1.95 33.63-2.2 34.6-1.8 35.93-3.03 36.38-3.73 36.9-4.45 36.98-5.55 36.38-6.23 36.15-6.5 35.83-6.68 35.48-6.78ZM35.28-4.45C35.28-4.28 35.25-4.13 35.18-4.03 34.9-3.53 34.28-3.28 33.73-3.45 33.63-3.48 33.53-3.53 33.45-3.63 33.33-3.8 33.4-4.05 33.5-4.25 33.58-4.45 33.68-4.67 33.78-4.9 33.88-5.1 33.98-5.33 34.13-5.48 34.83-6.1 35.33-5.15 35.28-4.45ZM46-11.23C45.95-11.28 45.85-11.33 45.7-11.33 45.18-11.38 44.65-11.45 44.13-11.43 43.65-11.4 43.23-11.25 42.78-11.2 42.73-11.2 42.15-12.08 42.1-12.15 41.7-12.65 41.23-13.1 40.6-13.28 40.13-13.38 39.6-13.33 39.2-13.05 38.9-12.85 38.7-12.53 38.63-12.18 38.58-11.9 38.65-11.45 38.33-11.3 38-11.15 37.4-11.28 37.03-11.18 36.83-11.13 36.28-11.1 36.3-10.85 36.38-9.9 38.38-10.7 38.43-10.38 38.43-10.23 38.4-10.08 38.48-9.95 38.55-9.83 38.53-9.4 38.5-9.25 38.5-8.9 38.5-8.55 38.5-8.2 38.48-7.48 38.48-6.78 38.45-6.05 38.45-5.18 38.43-4.3 38.4-3.45 38.4-3 38.38-2.55 38.38-2.1 38.38-1.4 39.15-0.08 39.18-0.08 39.23-0.1 39.93 0.6 40.05 0.65 40.65 1 41.45 1 42.08 0.7 42.5 0.5 42.85 0.15 43.05-0.28 43.15-0.45 43.3-0.75 43.2-0.93 43.05-1.15 42.83-1.03 42.7-0.85 42.63-0.73 42.58-0.6 42.48-0.53 42.33-0.38 42.08-0.4 41.9-0.5 41.73-0.6 41.63-0.8 41.58-1 41.45-1.45 41.6-1.75 41.7-2.2 41.78-2.6 41.78-3.05 41.85-3.45 42-4.2 42.35-4.83 42.63-5.53 43.13-6.85 42.78-8.33 42.95-9.73 42.95-9.8 42.95-9.88 42.9-9.95 42.93-10 42.93-10.03 42.93-10.08 42.9-9.83 43.38-10.23 43.4-10.23 43.68-10.35 44.1-10.33 44.38-10.38 44.78-10.43 45.18-10.45 45.53-10.58 45.83-10.68 46.2-11.05 46-11.23ZM47.35-10.75C47.38-10.63 47.43-10.5 47.5-10.4 47.63-10.2 47.88-10.1 48.08-10.03 48.55-9.83 49.08-9.7 49.58-9.8 51.05-10.13 50.4-12.03 49.98-12.95 49.83-13.25 49.65-13.55 49.38-13.73 48.9-14 48.13-13.95 47.78-13.55 47.6-13.38 47.58-13.15 47.48-12.93 47.33-12.53 47.35-12.13 47.38-11.68 47.38-11.4 47.3-11.05 47.35-10.75ZM52.6-4.17C52.48-4.3 52.25-4.25 52.08-4.1 51.95-4 51.85-3.88 51.73-3.88 51.48-3.73 51.05-3.55 50.93-3.38 50.55-3.18 50.13-2.75 49.98-2.75 49.48-2.33 48.88-2.02 48.4-1.6 48.38-1.6 48.35-1.6 48.33-1.6 48.18-1.55 48.65-2.68 48.68-2.7 48.93-3.18 49.15-3.68 49.35-4.17 49.95-5.83 50.58-7.63 48.88-8.88 48.4-9.22 47.78-9.43 47.18-9.45 46.43-9.45 46.5-8.88 46.38-8.28 46.2-7.5 46.05-6.7 45.93-5.93 45.75-4.8 45.58-3.68 45.45-2.58 45.4-1.98 45.1-1.18 45.55-0.7 46.05-0.18 46.95-0.13 47.6-0.28 48.38-0.45 49.05-0.88 49.68-1.35 50.4-1.88 51.1-2.45 51.75-3.05 51.98-3.25 52.58-3.63 52.65-3.93 52.68-4.05 52.65-4.13 52.6-4.17Z" transform="translate(-0.028942180797457695, 17.699342727661133)"></path></g> <!----> <!----> <!----> <!----> <!----> <!----> <!----></g></g> <g data-gra="path-slogan" fill-rule="" class="tp-slogan iconsvg-slogansvg" fill="#ec7210" transform="translate(4.0200347900390625,70.9972915649414)"><!----> <!----> <g transform="scale(1, 1)"><g transform="scale(3.5600000000000023)"><path d="M3.93-5.10C3.93-5.10 3.93-5.10 3.92-5.10C3.92-5.10 3.92-5.10 3.92-5.10L3.93-5.10ZM4.43-1.66C4.16-1.91 3.30-0.88 3.12-0.71C2.97-0.57 2.78-0.42 2.58-0.45C2.43-0.48 2.31-0.62 2.25-0.76C2.15-1.08 2.18-1.50 2.16-1.84C2.11-2.44 2.15-3.06 2.24-3.66C2.35-4.32 2.55-4.97 2.82-5.59C2.95-5.88 3.10-6.18 3.28-6.47C3.42-6.70 3.62-7.18 3.93-6.83C4.34-6.37 3.77-5.88 3.73-5.43C3.67-5.33 3.56-5.22 3.63-5.11C3.68-5.03 3.82-5.04 3.92-5.10C4.27-5.49 4.43-5.95 4.43-6.45C4.58-6.92 4.38-7.36 3.90-7.55C3.72-7.60 3.52-7.66 3.34-7.73C2.82-7.91 2.47-7.82 2.08-7.42C0.90-6.25 0.33-4.58 0.08-2.94C0-2.40-0.05-1.85 0.10-1.34C0.47-0.10 2.11 0.26 3.20-0.19C3.48-0.30 4.85-1.29 4.43-1.66ZM9.20-4.81C9.17-5.20 9.09-5.60 8.89-5.94C8.71-6.26 8.44-6.52 8.12-6.68C7.95-6.75 7.79-6.78 7.62-6.83C7.31-6.93 7.53-7.19 7.52-7.42C7.51-7.74 7.28-8.04 6.98-8.13C6.80-8.18 6.59-8.17 6.43-8.05C6.32-7.96 6.25-7.84 6.18-7.71C5.96-7.31 5.73-6.91 5.54-6.50C5.26-5.88 5.04-5.24 4.86-4.59C4.55-3.43 4.39-2.18 4.80-1.06C4.96-0.59 5.20-0.21 5.64 0.02C6.06 0.24 6.57 0.31 7.02 0.18C7.84-0.05 8.21-0.78 8.52-1.51C8.70-1.92 8.79-2.40 8.90-2.84C9.03-3.35 9.16-3.87 9.20-4.40C9.21-4.53 9.21-4.67 9.20-4.81ZM7.93-6.20C8.39-5.67 8.54-4.92 8.48-4.21C8.40-3.38 8.04-2.64 7.78-1.85C7.63-1.42 7.37-1.06 7.09-0.69C6.93-0.48 6.84-0.47 6.62-0.64C6.32-1.25 6.16-2.01 6.02-2.72C5.96-2.97 5.92-3.24 5.96-3.51C6.01-3.79 6.16-3.90 6.31-4.11C6.43-4.25 6.39-4.51 6.56-4.60C6.76-4.28 7.03-4.04 7.40-3.92C7.53-3.87 7.64-3.93 7.75-3.99C7.80-4.03 7.80-4.09 7.75-4.13C7.72-4.16 7.68-4.17 7.64-4.19C7.22-4.44 7.07-5.08 7.23-5.49C7.29-5.65 7.40-5.79 7.46-5.95C7.56-6.23 7.66-6.26 7.92-6.20C7.93-6.20 7.93-6.20 7.93-6.20ZM12.28-1.21C12.25-1.21 12.24-1.22 12.23-1.25C12.15-1.38 12.07-1.31 11.97-1.25C11.95-1.29 11.90-1.28 11.87-1.25C11.84-1.23 11.82-1.20 11.80-1.17C11.76-1.10 11.23-0.65 11.16-0.74C11.13-0.77 11.10-0.80 11.07-0.84C11.02-0.89 11.05-1.30 11.05-1.38C11.04-1.61 11.05-1.84 11.07-2.07C11.10-2.53 11.19-2.98 11.27-3.43C11.53-4.75 12.12-6.61 10.86-7.60C10.76-7.69 10.63-7.75 10.49-7.71C10.37-7.68 10.31-7.55 10.26-7.42C9.88-6.43 9.78-5.29 9.59-4.26C9.46-3.56 9.39-2.86 9.33-2.16C9.31-1.84 9.32-1.51 9.29-1.19C9.27-0.90 9.40-0.62 9.59-0.41C10.15 0.22 11.00 0.22 11.63-0.33C11.86-0.54 12.13-0.78 12.32-1.01C12.40-1.11 12.36-1.17 12.28-1.21ZM15.40-1.21C15.38-1.21 15.37-1.22 15.36-1.25C15.28-1.38 15.19-1.31 15.09-1.25C15.07-1.29 15.03-1.28 14.99-1.25C14.96-1.23 14.95-1.20 14.93-1.17C14.88-1.10 14.35-0.65 14.29-0.74C14.26-0.77 14.22-0.80 14.19-0.84C14.15-0.89 14.18-1.30 14.18-1.38C14.17-1.61 14.18-1.84 14.19-2.07C14.22-2.53 14.31-2.98 14.40-3.43C14.65-4.75 15.25-6.61 13.98-7.60C13.88-7.69 13.75-7.75 13.62-7.71C13.50-7.68 13.43-7.55 13.39-7.42C13.00-6.43 12.90-5.29 12.72-4.26C12.58-3.56 12.52-2.86 12.45-2.16C12.43-1.84 12.44-1.51 12.42-1.19C12.40-0.90 12.53-0.62 12.72-0.41C13.28 0.22 14.12 0.22 14.75-0.33C14.98-0.54 15.26-0.78 15.44-1.01C15.52-1.11 15.49-1.17 15.40-1.21ZM20.25-6.78C20.21-7.04 20.06-7.26 19.87-7.44C19.76-7.55 19.65-7.66 19.48-7.64C19.06-7.83 18.57-7.94 18.14-7.75C17.83-7.62 17.59-7.39 17.38-7.14C17.02-6.73 16.71-6.25 16.61-5.71C16.52-5.21 16.61-4.55 17.01-4.20C17.15-4.09 17.29-4.07 17.13-3.89C17.01-3.76 16.80-3.74 16.65-3.63C16.30-3.34 15.98-2.99 15.77-2.58C15.51-2.05 15.44-1.39 15.71-0.85C16.32 0.45 18.23 0.01 19.23-0.53C19.46-0.65 19.70-0.81 19.85-1.03C19.95-1.16 20.02-1.32 20.03-1.48C20.04-1.56 20.04-1.65 20.02-1.72C20.01-1.78 19.93-1.85 19.93-1.90C19.56-2.05 19.22-1.62 19.27-1.25C19.08-1.03 18.90-0.81 18.66-0.65C18.48-0.53 18.20-0.38 17.97-0.43C17.78-0.47 17.80-0.64 17.74-0.79C17.67-1.00 17.48-1.14 17.38-1.34C17.30-1.52 17.30-1.72 17.35-1.90C17.47-2.47 17.82-3.04 18.22-3.45C18.39-3.63 18.59-3.79 18.81-3.93C18.89-3.97 19.00-3.99 18.96-4.09C18.94-4.18 18.62-4.30 18.55-4.33C18.52-4.75 18.56-5.16 18.73-5.53C18.86-5.82 19.04-6.07 19.21-6.34C19.29-6.48 19.37-6.65 19.34-6.82C19.33-6.89 19.47-7.00 19.52-6.98C19.65-6.97 19.65-6.85 19.67-6.76C19.77-6.32 19.73-6.03 19.62-5.59C19.61-5.55 19.61-5.52 19.61-5.49C19.63-5.39 19.76-5.35 19.85-5.37C20.36-5.46 20.39-6.41 20.25-6.78ZM24.32-5.10C24.32-5.10 24.32-5.10 24.31-5.10C24.31-5.10 24.31-5.10 24.31-5.10L24.32-5.10ZM24.83-1.66C24.55-1.91 23.69-0.88 23.52-0.71C23.36-0.57 23.18-0.42 22.98-0.45C22.82-0.48 22.70-0.62 22.65-0.76C22.54-1.08 22.57-1.50 22.55-1.84C22.51-2.44 22.54-3.06 22.64-3.66C22.75-4.32 22.95-4.97 23.21-5.59C23.34-5.88 23.50-6.18 23.67-6.47C23.81-6.70 24.01-7.18 24.32-6.83C24.74-6.37 24.17-5.88 24.12-5.43C24.07-5.33 23.96-5.22 24.02-5.11C24.08-5.03 24.21-5.04 24.31-5.10C24.66-5.49 24.83-5.95 24.83-6.45C24.97-6.92 24.77-7.36 24.30-7.55C24.11-7.60 23.91-7.66 23.74-7.73C23.21-7.91 22.87-7.82 22.47-7.42C21.30-6.25 20.72-4.58 20.47-2.94C20.39-2.40 20.34-1.85 20.49-1.34C20.87-0.10 22.51 0.26 23.59-0.19C23.87-0.30 25.24-1.29 24.83-1.66ZM30.54-7.01C30.47-7.12 29.95-7.09 29.84-7.09C29.35-7.09 28.84-7.03 28.36-7.11C28.16-7.14 28.02-7.22 27.92-7.38C27.77-7.61 27.57-7.73 27.31-7.78C27.16-7.81 27.07-7.75 27.02-7.62C26.99-7.56 26.97-7.49 26.96-7.42C26.92-7.15 26.92-7.15 26.65-7.14C26.09-7.12 25.52-7.08 24.96-7.08C24.94-6.58 26.04-6.74 26.30-6.71C26.63-6.68 26.70-6.65 26.67-6.31C26.63-5.79 26.56-5.27 26.51-4.74C26.45-4.04 26.40-3.33 26.38-2.62C26.36-2.25 26.33-1.89 26.34-1.53C26.34-1.36 26.31-0.97 26.49-0.89C26.49-0.80 26.53-0.75 26.60-0.71L26.61-0.73C26.70-0.59 26.65-0.44 26.67-0.31C26.70-0.09 26.74 0 26.89 0.01C27.06 0.02 27.26 0.11 27.36-0.13C27.37-0.12 27.37-0.11 27.38-0.11C27.54-0.10 27.60-0.23 27.69-0.33C27.70-0.36 27.71-0.37 27.74-0.37C27.88-0.38 28.08-0.79 28.14-0.90C28.27-1.16 28.37-1.43 28.38-1.73C28.39-2.07 28.28-2.41 28.24-2.75C28.19-3.12 28.24-3.51 28.29-3.88C28.35-4.33 28.42-4.79 28.50-5.22C28.57-5.60 28.73-6.03 28.69-6.40C28.69-6.45 28.73-6.50 28.78-6.50C29.01-6.51 29.20-6.62 29.44-6.63C29.73-6.67 30.19-6.67 30.45-6.85C30.54-6.92 30.56-6.97 30.54-7.01ZM32.86-5.49C32.85-5.91 32.79-6.32 32.66-6.72C32.50-7.17 32.09-7.85 31.59-7.88C31.10-7.90 31.12-7.09 31.07-6.71C30.99-5.97 30.91-5.22 30.84-4.49C30.77-3.63 30.70-2.78 30.66-1.92C30.63-1.47 30.61-1.01 30.59-0.56C30.58-0.20 30.44 0.18 30.87 0.15C30.99 0.05 31.12 0.11 31.24 0.10C31.35 0.10 31.47 0.08 31.50-0.05C31.62-0.47 31.99-0.84 32.20-1.19C32.46-1.64 32.63-2.15 32.72-2.66C32.87-3.42 32.88-4.20 32.87-4.97C32.87-5.15 32.87-5.31 32.86-5.49ZM37.55-4.81C37.53-5.20 37.44-5.60 37.25-5.94C37.07-6.26 36.79-6.52 36.48-6.68C36.31-6.75 36.15-6.78 35.98-6.83C35.67-6.93 35.89-7.19 35.88-7.42C35.87-7.74 35.64-8.04 35.34-8.13C35.16-8.18 34.95-8.17 34.79-8.05C34.68-7.96 34.61-7.84 34.54-7.71C34.32-7.31 34.09-6.91 33.90-6.50C33.62-5.88 33.40-5.24 33.22-4.59C32.91-3.43 32.75-2.18 33.15-1.06C33.32-0.59 33.56-0.21 34.00 0.02C34.42 0.24 34.92 0.31 35.38 0.18C36.20-0.05 36.56-0.78 36.88-1.51C37.06-1.92 37.15-2.40 37.26-2.84C37.39-3.35 37.52-3.87 37.55-4.40C37.56-4.53 37.56-4.67 37.55-4.81ZM36.29-6.20C36.75-5.67 36.89-4.92 36.84-4.21C36.76-3.38 36.40-2.64 36.13-1.85C35.99-1.42 35.73-1.06 35.45-0.69C35.29-0.48 35.20-0.47 34.98-0.64C34.68-1.25 34.52-2.01 34.37-2.72C34.32-2.97 34.28-3.24 34.32-3.51C34.36-3.79 34.52-3.90 34.67-4.11C34.79-4.25 34.75-4.51 34.91-4.60C35.12-4.28 35.39-4.04 35.76-3.92C35.89-3.87 36.00-3.93 36.11-3.99C36.16-4.03 36.16-4.09 36.11-4.13C36.08-4.16 36.04-4.17 36.00-4.19C35.57-4.44 35.43-5.08 35.58-5.49C35.65-5.65 35.76-5.79 35.82-5.95C35.91-6.23 36.01-6.26 36.28-6.20C36.29-6.20 36.29-6.20 36.29-6.20ZM42.56-1.11C42.26-1.10 42.16-1.03 42.10-0.77L42.10-0.77C42.04-0.67 41.98-0.57 41.85-0.55C41.84-0.59 41.83-0.63 41.81-0.66C41.81-1.04 41.82-1.42 41.82-1.80C41.81-2.15 41.89-2.51 41.93-2.85C42.04-3.62 42.14-4.39 42.25-5.15C42.27-5.35 42.31-5.54 42.26-5.73C42.16-6.21 41.43-7.02 40.90-6.75C40.41-6.50 40.15-6.03 39.89-5.58C39.84-5.50 39.76-5.43 39.76-5.32C39.62-5.33 39.70-5.43 39.71-5.50C39.79-5.74 39.86-6.01 39.85-6.27C39.82-6.75 39.74-7.23 39.45-7.62C39.27-7.86 38.66-8.34 38.42-7.95C38.26-7.69 38.30-7.30 38.26-7.01C38.17-6.50 38.09-6.01 38.03-5.50C37.94-4.88 37.85-4.27 37.77-3.64C37.74-3.32 37.70-3.00 37.67-2.68C37.65-2.53 37.62-2.12 37.72-2.00C37.87-1.67 38.29-1.57 38.59-1.81C38.70-1.90 38.76-2.02 38.86-2.13C39.07-2.38 39.37-2.30 39.47-2.65C39.60-3.12 39.65-3.60 39.84-4.05C40.08-4.63 40.51-5.08 40.75-5.64C40.80-5.76 40.92-5.92 41.00-5.76C41.05-5.64 40.91-5.31 40.89-5.18C40.80-4.75 40.72-4.31 40.66-3.88C40.56-3.19 40.50-2.49 40.48-1.79C40.46-1.22 40.57-0.69 40.97-0.27C41.47 0.23 42.57-0.05 42.69-1.04C42.65-1.08 42.61-1.11 42.56-1.11Z" transform="translate(-0.0009412048915436594, 8.160715237563188)"></path></g></g></g></g></g><defs v-gra="od"></defs></svg>